PathFileType	4	(X/Y/Z)	C:/Users/beibeiliu/ov580/test_trc/User2\sequence.7_training_dense_left.trc
DataRate	CameraRate	NumFrames	NumMarkers	Units	OrigDataRate	OrigDataStartFrame	OrigNumFrames
120	120	22	19	mm	120	43	338
Frame#	Time	ThumbCMC			ThumbMCP			ThumbIP			ThumbTip			IndexMCP			IndexPIP			IndexTip			MiddleMCP			MiddlePIP			MiddleTip			RingMCP			RingPIP			RingTip			PinkyMCP			PinkyPIP			PinkyTip			BackHand1			BackHand2			BackHand3	
		X0	Y0	Z0	X1	Y1	Z1	X2	Y2	Z2	X3	Y3	Z3	X4	Y4	Z4	X5	Y5	Z5	X6	Y6	Z6	X7	Y7	Z7	X8	Y8	Z8	X9	Y9	Z9	X10	Y10	Z10	X11	Y11	Z11	X12	Y12	Z12	X13	Y13	Z13	X14	Y14	Z14	X15	Y15	Z15	X16	Y16	Z16	X17	Y17	Z17	X18	Y18	Z18	
42	0.35	-230.331	14.2889	104.833	-248.504	14.9941	84.2709	-269.643	5.65181	58.3291	-284.177	5.29986	40.6384	-236.634	-46.0626	48.3544	-219.208	-29.9354	24.3162	-214.409	-6.11764	52.2151	-207.986	-51.6364	43	-192.037	-24.4003	30.6437	-201.412	-7.09011	67.8091	-183.611	-48.9668	48.7454	-173.742	-18.8407	40.5317	-185.863	-6.49019	72.2921	-164.647	-46.6214	56.6622	-164.932	-13.4146	52.7305	-175.561	-8.02669	83.665	-191.843	-44.997	113.961	-185.73	-23.059	139.696	-219.63	-18.1045	122.829	
43	0.358333	-231.388	20.7905	105.775	-246.211	19.4236	82.8183	-269.128	20.7481	60.294	-287.527	19.7491	37.7349	-241.522	-43.5095	47.959	-228.678	-29.5896	22.8401	-215.991	-5.73131	48.1664	-218.567	-51.5335	48.1816	-200.563	-23.5009	30.8076	-201.694	-7.90911	66.1583	-195.592	-50.6947	46.9795	-181.748	-26.1029	38.9585	-186.37	-9.59026	74.0446	-179.568	-51.8326	56.3873	-169.759	-21.4628	52.9105	-178.081	-10.8084	81.4616	-205.596	-47.2597	112.76	-191.811	-27.5276	141.547	-227.194	-13.2505	123.054	
44	0.366667	-223.631	23.6903	106.055	-242.262	30.3501	80.3796	-267.495	33.0087	54.5712	-277.579	32.5967	34.8004	-250.118	-33.9158	48.4062	-230.585	-28.6396	23.6263	-215.912	-5.1959	50.9933	-230.721	-47.381	49.3603	-204.053	-31.5171	31.3216	-202.137	-7.484	65.7027	-204.047	-54.4658	48.9335	-185.85	-33.2707	41.0878	-188.317	-14.4037	75.4411	-191.113	-60.0776	63.5113	-173.118	-29.3882	57.2562	-184.572	-16.9957	86.2149	-215.709	-45.4258	115.355	-204.777	-25.4638	141.14	-234.704	-9.48992	120.566	
45	0.375	-218.144	27.5942	102.089	-232.037	34.7757	75.3312	-247.137	41.4942	50.3484	-257.385	48.237	30.515	-253.416	-25.5028	45.7166	-229.707	-23.9917	23.8731	-213.496	-4.85812	49.1615	-236.684	-44.0781	46.5237	-203.552	-34.64	35.5467	-198.655	-11.7381	65.6059	-218.32	-54.341	52.3146	-191.985	-40.6588	44.4398	-192.285	-19.3797	78.8543	-201.214	-64.3272	63.6688	-177.714	-41.8976	61.5836	-184.004	-23.8139	86.81	-226.281	-44.5845	118.166	-213.745	-23.389	145.218	-234.131	-1.95195	120.499	
46	0.383333	-210.397	29.744	98.7084	-214.96	40.0512	72.6202	-227.049	47.8669	44.8471	-235.473	51.9285	20.0904	-253.794	-14.4716	43.6425	-231.171	-25.1686	22.9435	-209.142	-11.1301	50.7052	-243.975	-36.5114	45.1761	-207.29	-36.8375	35.3938	-197.78	-17.8422	67.0465	-228.027	-57.8057	57.2163	-198.37	-46.9262	48.068	-193.366	-27.9832	79.9713	-216.172	-66.7786	67.1615	-190.167	-51.9915	64.0746	-191.243	-33.1124	90.4268	-240.933	-33.1293	115.469	-221.635	-20.1524	145.244	-233.79	7.28499	116.883	
47	0.391667	-195.662	27.2689	97.6028	-198.028	31.3908	70.046	-202.952	47.9258	37.6779	-201.869	54.0193	16.5805	-248.988	-6.36497	37.3091	-229.138	-20.8934	21.2468	-204.304	-11.9099	48.5729	-247.747	-28.9911	46.7858	-214.103	-44.2684	37.6795	-198.15	-22.5856	68.4221	-236.767	-52.9638	54.6138	-207.76	-52.53	51.9467	-200.533	-32.2878	83.6513	-233.646	-61.923	71.3353	-200.484	-57.7931	71.7442	-202.31	-36.434	96.8731	-245.765	-23.2099	115.56	-231.211	-11.3829	141.624	-230.038	15.0145	114.543	
48	0.4	-183.715	18.5119	100.449	-180.856	21.6395	70.6592	-176.341	37.0534	37.4866	-175.628	38.9108	13.9559	-242.011	1.15483	35.9459	-227.294	-23.7067	21.773	-203.15	-19.6019	49.4343	-247.936	-23.4863	45.1911	-217.371	-43.9669	37.2925	-199.983	-26.1811	69.2288	-245.213	-42.2303	55.7931	-216.301	-58.5162	57.879	-208.118	-31.4014	83.8848	-244.185	-59.7683	70.7642	-211.104	-59.634	75.4565	-208.934	-40.246	97.2353	-250.684	-12.4585	113.917	-234.123	-6.24274	139.295	-223.795	16.0291	114.49	
49	0.408333	-175.144	11.6005	96.7684	-169.837	10.7966	72.4983	-159.05	20.5623	41.3283	-150.648	24.7429	17.3528	-234.563	2.80401	32.4179	-223.068	-23.8892	21.1481	-201.432	-24.1083	47.3986	-245.499	-17.9057	40.8417	-224.382	-46.5257	39.2422	-205.864	-32.1528	74.8478	-250.561	-39.1931	54.1452	-223.664	-56.9811	58.0135	-212.668	-37.7777	86.654	-254.526	-45.5721	72.5312	-223.837	-59.8001	74.2057	-214.995	-40.9205	101.939	-250.19	-0.794952	108.263	-229.963	1.35619	137.699	-214.997	19.0144	109.998	
50	0.416667	-169.894	3.19957	102.399	-162.419	3.40306	72.8951	-149.738	7.7125	43.9934	-136.156	10.3951	22.3366	-225.009	5.47909	33.9148	-225.526	-26.4473	21.7204	-201.833	-30.5203	46.6505	-243.432	-15.7091	41.1521	-227.743	-47.9665	40.2455	-208.893	-37.8496	73.4973	-252.076	-32.4795	54.2775	-230.589	-58.1942	61.2374	-216.555	-35.5889	87.9695	-257.127	-44.9095	71.2293	-231.865	-62.7463	78.2829	-218.125	-41.4695	99.0664	-245.912	4.91706	108.179	-231.759	6.60931	137.571	-210.073	19.6037	108.567	
51	0.425	-167.377	-2.2058	102.321	-155.631	-4.17843	74.8493	-146.206	-3.28725	44.1786	-132.039	-2.1178	20.2074	-224.332	1.4404	31.6618	-224.182	-28.4097	20.9245	-203.564	-33.8265	51.5289	-241.729	-15.3312	40.5338	-230.3	-48.022	37.7834	-209.306	-36.8661	76.8384	-251.097	-31.1875	53.1179	-232.742	-56.6408	60.5547	-219.865	-39.5135	88.2848	-262.687	-40.5184	74.451	-233.63	-59.7723	81.4853	-222.278	-37.3373	99.3288	-242.431	8.52698	104.042	-229.946	8.62429	137.185	-204.1	20.2256	105.093	
52	0.433333	-170.626	-5.70238	100.595	-158.644	-11.6797	76.5261	-143.06	-10.0222	39.277	-132.195	-15.3189	20.7617	-223.822	-1.98665	33.2581	-227.305	-32.0275	22.8131	-207.049	-37.9165	53.7242	-244.058	-19.6734	39.3959	-233.057	-51.2526	41.5681	-208.848	-40.9	74.1707	-255.774	-30.6853	58.8975	-237.482	-56.9895	63.852	-220.714	-37.7323	90.8339	-263.309	-38.2879	76.3955	-237.102	-58.1848	85.5864	-222.863	-35.6765	107.245	-239.846	10.4107	101.676	-226.638	14.1334	138.31	-201.071	19.2581	101.415	
53	0.441667	-165.295	-9.53778	102.657	-155.795	-15.4005	72.3526	-141.478	-19.7401	41.1549	-133.169	-27.1257	23.6132	-220.072	-4.67058	33.2367	-225.802	-36.2801	24.5532	-207.316	-44.1928	52.0631	-238.402	-20.187	38.6555	-233.062	-54.3096	48.3288	-211.464	-41.8559	79.4511	-251.134	-30.3439	56.391	-241.328	-56.3248	68.1159	-219.253	-39.7718	90.6199	-261.658	-32.6032	75.9107	-239.19	-55.805	86.3485	-222.425	-36.7753	106.001	-237.232	16.0052	105.292	-221.406	18.6049	134.105	-195.342	18.6257	99.4079	
54	0.45	-163.914	-11.0599	99.9061	-154.942	-20.7409	77.0535	-140.956	-27.5967	44.5929	-132.74	-36.6553	26.5683	-217.371	-8.31105	33.3903	-225.312	-41.5925	28.7021	-207.929	-47.3759	56.3897	-240.063	-19.4646	43.9973	-233.193	-54.3342	53.519	-209.489	-41.867	82.689	-253.33	-28.1598	62.583	-242.081	-55.6497	76.626	-219.39	-37.1307	94.5354	-260.958	-31.7038	78.452	-241.54	-53.7576	91.6434	-223.443	-33.0183	108.003	-232.579	19.1204	101.877	-217.501	20.4936	134.906	-190.364	15.9478	100.391	
55	0.458333	-162.362	-13.9552	103.996	-150.646	-25.0693	76.8706	-141.832	-34.7137	48.2561	-126.399	-44.8441	29.1686	-212.578	-9.99893	36.2525	-223.738	-41.2021	31.0167	-206.559	-48.7703	61.0867	-233.568	-20.3926	44.123	-231.525	-55.7192	55.8066	-211.823	-43.6391	86.7699	-247.219	-24.9664	62.0132	-239	-54.8371	80.1812	-217.298	-36.0497	98.2092	-260.063	-27.0628	80.6634	-242.152	-51.2164	92.6831	-222.206	-29.246	114.123	-223.653	19.4627	100.359	-208.881	24.1654	129.943	-184.338	17.8549	102.919	
56	0.466667	-157.102	-13.7905	103.966	-145.326	-26.4607	80.1598	-134.244	-37.6607	50.4747	-123.654	-49.4126	35.4586	-206.448	-14.2565	33.9893	-216.728	-44.5448	31.6576	-202.007	-51.9215	61.6842	-229.704	-22.9299	44.1698	-229.284	-55.1442	61.0348	-206.925	-39.1843	90.228	-243.391	-24.8704	63.6474	-236.21	-53.246	82.1145	-211.933	-33.0177	98.9972	-253.713	-22.0313	80.8006	-240.354	-49.498	94.142	-219.631	-29.6366	115.06	-223.637	22.2204	97.2346	-206.259	28.6053	132.73	-180.049	15.2295	99.1516	
57	0.475	-153.909	-12.2542	110.841	-143.677	-25.3174	86.5073	-133.656	-38.3365	54.2544	-121.733	-50.0944	38.5423	-200.261	-18.2253	34.1357	-211.711	-45.8737	36.097	-194.66	-49.518	66.8639	-224.108	-23.311	45.3653	-225.123	-54.5414	59.3438	-200.079	-37.7614	91.2069	-237.944	-30.0611	62.3197	-229.435	-54.0522	80.339	-208.724	-35.2473	99.8625	-249.893	-23.4969	80.6406	-234.681	-49.2756	99.685	-214.933	-30.0585	116.916	-218.433	21.6181	98.8481	-200.042	29.5455	128.449	-176.591	18.5715	102.404	
58	0.483333	-145.467	-8.12404	114.516	-136.909	-21.9343	90.9103	-121.492	-34.0649	64.8828	-108.638	-46.0157	45.3811	-187.781	-16.0402	36.9217	-198.159	-46.0804	35.7175	-183.498	-46.0287	72.0322	-212.154	-22.1455	45.9519	-210.578	-55.5537	63.6278	-190.365	-36.78	92.2587	-228.658	-27.2336	60.7839	-221.01	-53.0271	80.6592	-201.766	-33.8204	100.168	-242.288	-25.4519	77.1874	-226.234	-48.3636	94.9931	-208.383	-25.3845	114.701	-210.307	22.0186	92.6084	-201.014	31.7868	128.998	-173.656	21.9475	102.028	
59	0.491667	-140.646	-4.79519	122.841	-127.749	-18.1326	99.7507	-109.195	-29.5202	75.0799	-95.299	-41.0816	56.4975	-168.74	-18.3293	35.8135	-173.975	-49.1214	39.7352	-171.083	-45.2971	71.9583	-196.106	-25.0723	42.9533	-194.496	-55.3493	58.6608	-183.955	-35.1556	93.0563	-213.617	-31.5498	56.6425	-204.608	-52.8558	78.1524	-192.605	-26.8393	101.846	-228.79	-25.0869	71.8704	-214.109	-47.6272	95.8228	-203.077	-24.8961	110.241	-207.845	24.0523	94.8309	-201.758	33.7688	126.62	-164.65	23.73	105.268	
60	0.5	-136.95	-0.525252	131.817	-119.792	-12.3825	111.891	-93.6213	-23.3813	86.6066	-80.0052	-32.9644	73.6976	-148.008	-10.9567	45.7195	-154.469	-43.2405	41.7523	-155.739	-37.8961	80.6484	-170.054	-21.6332	43.2655	-175.635	-51.9055	58.125	-166.772	-31.8383	95.6513	-194.108	-28.7816	52.6994	-192.368	-51.3166	75.6025	-182.277	-27.8846	99.2559	-210.159	-25.6073	64.3716	-203.715	-47.1186	88.9908	-196.112	-24.0906	110.814	-194.843	23.7595	88.0768	-197.098	33.2999	126.488	-164.072	25.4204	110.29	
61	0.508333	-133.431	1.65719	139.575	-111.002	-9.09279	125.362	-83.1995	-18.0412	108.365	-62.2894	-26.4968	95.0273	-130.563	-6.08756	53.2518	-134.61	-38.8899	49.7501	-139.075	-34.9814	86.2446	-150.975	-19.1743	47.5821	-158.509	-48.235	64.8316	-157.832	-27.1874	98.6732	-177.618	-24.4008	52.6722	-175.232	-48.4269	73.9581	-176.185	-22.2977	100.501	-195.888	-26.0809	59.2979	-189.528	-44.7148	86.8254	-186.653	-19.4022	105.426	-185.927	25.3526	87.2114	-193.55	32.8392	122.088	-153.205	29.7549	118.723	
62	0.516667	-131.672	4.13998	147.174	-105.003	-5.01683	132.539	-78.7966	-13.2435	121.877	-54.3915	-20.3939	110.028	-113.937	-1.98598	59.3299	-117.519	-32.3769	55.867	-132.223	-26.4253	91.4643	-136.213	-10.4035	53.0433	-142.472	-42.9555	68.4374	-152.414	-23.0981	100.992	-161.454	-19.9475	53.5375	-161.308	-43.2866	72.7865	-166.137	-16.8316	101.206	-180.493	-18.1821	57.9559	-179.27	-39.9434	83.8522	-180.793	-13.8975	106.368	-175.831	32.1625	94.409	-186.845	35.5948	125.063	-149.419	31.9821	122.808	
63	0.525	-129.288	6.50189	149.747	-102.135	-1.71964	140.668	-72.8289	-8.57636	129.966	-49.0348	-16.4993	121.296	-104.501	5.29648	66.0461	-109.04	-26.2203	61.4412	-123.327	-22.4966	94.9184	-127.393	-4.63543	55.0391	-132.962	-35.7895	66.5535	-141.616	-19.2285	102.815	-150.073	-9.27939	55.0125	-152.229	-36.639	73.0002	-159.96	-15.0378	100.471	-168.723	-8.49883	57.9041	-171.247	-34.9991	80.1769	-170.588	-9.84804	103.767	-167.81	35.5473	96.1859	-188.12	40.619	125.961	-143.319	36.7413	125.725	
